<svg xmlns="http://www.w3.org/2000/svg" width="24" height="24" viewBox="0 0 48 48">
      <g fill="none" fillRule="evenodd">
        <path d="M0 0h48v48H0z" />
        <path
          fill="currentColor"
          fillRule="nonzero"
          d="M36.19 40H11.81C9.71 40 8 38.3 8 36.19V11.81C8 9.71 9.7 8 11.81 8h24.38C38.29 8 40 9.7 40 11.81v24.38c0 2.1-1.7 3.81-3.81 3.81M24 17.8a6.2 6.2 0 1 0 0 12.39 6.2 6.2 0 0 0 0-12.4m12.42-4.63c0-.84-.75-1.59-1.59-1.59h-2.99c-.84 0-1.62.75-1.62 1.59v2.99c0 .84.78 1.62 1.62 1.62h3c.83 0 1.58-.78 1.58-1.62zm0 8.55h-2.8a9.9 9.9 0 1 1-19.23 0h-2.81v13.11c0 .84.75 1.59 1.59 1.59h21.66c.84 0 1.59-.75 1.59-1.59z"
        />
      </g>
    </svg>