<svg
      xmlns="http://www.w3.org/2000/svg"
      width="24"
      height="24"
      fill="none"
      viewBox="0 0 24 24"
      aria-hidden="true"
    >
      <path
        fill="currentColor"
        d="M11 10a1 1 0 1 0 0-2 1 1 0 0 0 0 2M9 9a1 1 0 1 1-2 0 1 1 0 0 1 2 0M14 10a1 1 0 1 0 0-2 1 1 0 0 0 0 2"
      />
      <path
        fill="currentColor"
        fillRule="evenodd"
        d="M2 5c0-1.1.9-2 2-2h14a2 2 0 0 1 2 2v8.32a2 2 0 0 1-2 2h-8L6.72 18.7A1 1 0 0 1 5 18v-2.67H4a2 2 0 0 1-2-2zm3 8.72c.88 0 1.6.72 1.6 1.6v1.2l2.25-2.31c.3-.31.72-.49 1.15-.49h8a.4.4 0 0 0 .4-.4V5a.4.4 0 0 0-.4-.4H4a.4.4 0 0 0-.4.4v8.32c0 .22.18.4.4.4z"
        clipRule="evenodd"
      />
      <path
        fill="currentColor"
        d="M10 17.52c0 .45.36.8.8.8H15l3.28 3.38A1 1 0 0 0 20 21v-2.68h1a2 2 0 0 0 2-2V10.8a.8.8 0 0 0-1.6 0v5.52a.4.4 0 0 1-.4.4h-1c-.88 0-1.6.72-1.6 1.6v1.2l-2.25-2.31a1.6 1.6 0 0 0-1.15-.49h-4.2a.8.8 0 0 0-.8.8"
      />
    </svg>